<?xml version="1.0" encoding="UTF-8" standalone="no"?>
<svg
   width="31"
   height="30"
   viewBox="0 0 31 30"
   fill="none"
   version="1.1"
   id="svg83"
   sodipodi:docname="dueTime.svg"
   inkscape:version="1.2.1 (9c6d41e4, 2022-07-14)"
   xml:space="preserve"
   xmlns:inkscape="http://www.inkscape.org/namespaces/inkscape"
   xmlns:sodipodi="http://sodipodi.sourceforge.net/DTD/sodipodi-0.dtd"
   xmlns="http://www.w3.org/2000/svg"
   xmlns:svg="http://www.w3.org/2000/svg"><defs
     id="defs87" /><sodipodi:namedview
     id="namedview85"
     pagecolor="#ffffff"
     bordercolor="#000000"
     borderopacity="0.25"
     inkscape:showpageshadow="2"
     inkscape:pageopacity="0.0"
     inkscape:pagecheckerboard="0"
     inkscape:deskcolor="#d1d1d1"
     showgrid="false"
     inkscape:zoom="18.466667"
     inkscape:cx="5.5234656"
     inkscape:cy="15"
     inkscape:window-width="1440"
     inkscape:window-height="774"
     inkscape:window-x="0"
     inkscape:window-y="24"
     inkscape:window-maximized="0"
     inkscape:current-layer="svg83" /><ellipse
     cx="15.5"
     cy="15"
     rx="14.5"
     ry="14"
     stroke="#979797"
     stroke-dasharray="4"
     id="ellipse81" /><g
     style="fill:none"
     id="g3265"
     transform="translate(5.511768,4.9553663)"><path
       opacity="0.3"
       fill-rule="evenodd"
       clip-rule="evenodd"
       d="m 3.77783,9.99999 c 0,-3.43111 2.79111,-6.22222 6.22227,-6.22222 3.4311,0 6.2222,2.79111 6.2222,6.22222 0,3.43111 -2.7911,6.22221 -6.2222,6.22221 -3.43116,0 -6.22227,-2.7911 -6.22227,-6.22221 z m 5.33334,0.88891 4.22223,2.5333 0.6667,-1.0933 -3.5556,-2.1067 V 5.55555 H 9.11117 Z"
       fill="#909191"
       id="path3250" /><path
       d="M 10.4444,5.55556 H 9.11108 V 10.8889 L 13.3333,13.4222 14,12.3289 10.4444,10.2222 Z"
       fill="#909191"
       id="path3252" /><path
       fill-rule="evenodd"
       clip-rule="evenodd"
       d="m 2,10 c 0,-4.41778 3.58222,-8 8,-8 4.4178,0 8,3.58222 8,8 0,4.4178 -3.5822,8 -8,8 -4.41778,0 -8,-3.5822 -8,-8 z m 1.77778,0 c 0,3.4311 2.79111,6.2222 6.22222,6.2222 3.4311,0 6.2222,-2.7911 6.2222,-6.2222 C 16.2222,6.56889 13.4311,3.77778 10,3.77778 6.56889,3.77778 3.77778,6.56889 3.77778,10 Z"
       fill="#909191"
       id="path3254" /></g></svg>
