<svg width="142" height="28" viewBox="0 0 142 28" fill="none" xmlns="http://www.w3.org/2000/svg">
<path d="M14.36 7.92H9.04V5.88C9.04 5.66667 8.96 5.48 8.8 5.32C8.66667 5.16 8.49333 5.08 8.28 5.08H6.08C5.86667 5.08 5.68 5.16 5.52 5.32C5.38667 5.48 5.32 5.66667 5.32 5.88V10.48C5.32 10.6933 5.38667 10.88 5.52 11.04C5.68 11.2 5.86667 11.28 6.08 11.28H9.68C12.9867 11.3333 14.64 13.0933 14.64 16.56V22.12C14.64 25.64 12.9867 27.4 9.68 27.4H4.96C1.65333 27.4 2.98023e-08 25.64 2.98023e-08 22.12V19.44H5.32V22.32C5.32 22.5333 5.38667 22.72 5.52 22.88C5.68 23.04 5.86667 23.12 6.08 23.12H8.56C8.77333 23.12 8.94667 23.04 9.08 22.88C9.24 22.72 9.32 22.5333 9.32 22.32V17.24C9.32 17.0267 9.24 16.84 9.08 16.68C8.94667 16.52 8.77333 16.44 8.56 16.44H4.96C1.65333 16.44 2.98023e-08 14.68 2.98023e-08 11.16V6C2.98023e-08 2.48 1.65333 0.72 4.96 0.72H9.4C12.7067 0.72 14.36 2.48 14.36 6V7.92ZM34.4403 1.12L30.0403 13L35.2803 27H29.5603L25.7203 16.76H23.9203V27H18.3203V1.12H23.9203V11.96H25.2803L29.3203 1.12H34.4403ZM47.4675 0.72C50.7742 0.72 52.4275 2.48 52.4275 6V27H46.8275V18.32H42.7875V27H37.1875V6C37.1875 2.48 38.8408 0.72 42.1475 0.72H47.4675ZM42.7875 14H46.8275V5.32C46.8275 5.10667 46.7475 4.92 46.5875 4.76C46.4542 4.6 46.2808 4.52 46.0675 4.52H43.5475C43.3342 4.52 43.1475 4.6 42.9875 4.76C42.8542 4.92 42.7875 5.10667 42.7875 5.32V14ZM55.1216 5.88V1.12H69.1216V5.88H64.9216V27H59.3216V5.88H55.1216ZM70.1997 5.88V1.12H84.1997V5.88H79.9997V27H74.3997V5.88H70.1997ZM97.0378 0.72C100.344 0.72 101.998 2.48 101.998 6V27H96.3978V18.32H92.3578V27H86.7578V6C86.7578 2.48 88.4111 0.72 91.7178 0.72H97.0378ZM92.3578 14H96.3978V5.32C96.3978 5.10667 96.3178 4.92 96.1578 4.76C96.0245 4.6 95.8511 4.52 95.6378 4.52H93.1178C92.9045 4.52 92.7178 4.6 92.5578 4.76C92.4245 4.92 92.3578 5.10667 92.3578 5.32V14ZM120.532 7.92H115.212V5.88C115.212 5.66667 115.132 5.48 114.972 5.32C114.839 5.16 114.665 5.08 114.452 5.08H112.252C112.039 5.08 111.852 5.16 111.692 5.32C111.559 5.48 111.492 5.66667 111.492 5.88V10.48C111.492 10.6933 111.559 10.88 111.692 11.04C111.852 11.2 112.039 11.28 112.252 11.28H115.852C119.159 11.3333 120.812 13.0933 120.812 16.56V22.12C120.812 25.64 119.159 27.4 115.852 27.4H111.132C107.825 27.4 106.172 25.64 106.172 22.12V19.44H111.492V22.32C111.492 22.5333 111.559 22.72 111.692 22.88C111.852 23.04 112.039 23.12 112.252 23.12H114.732C114.945 23.12 115.119 23.04 115.252 22.88C115.412 22.72 115.492 22.5333 115.492 22.32V17.24C115.492 17.0267 115.412 16.84 115.252 16.68C115.119 16.52 114.945 16.44 114.732 16.44H111.132C107.825 16.44 106.172 14.68 106.172 11.16V6C106.172 2.48 107.825 0.72 111.132 0.72H115.572C118.879 0.72 120.532 2.48 120.532 6V7.92ZM140.612 1.12L136.212 13L141.452 27H135.732L131.892 16.76H130.092V27H124.492V1.12H130.092V11.96H131.452L135.492 1.12H140.612Z" fill="#6535CA"/>
</svg>
